<svg width="535" height="321" viewBox="0 0 535 321" fill="none" xmlns="http://www.w3.org/2000/svg">
<g clip-path="url(#clip0_10_5)">
<mask id="mask0_10_5" style="mask-type:luminance" maskUnits="userSpaceOnUse" x="0" y="0" width="535" height="321">
<path d="M0 0H535V321H0V0Z" fill="white"/>
</mask>
<g mask="url(#mask0_10_5)">
<path fill-rule="evenodd" clip-rule="evenodd" d="M267.5 0C196.167 0 151.583 35.6667 133.75 107C160.5 71.3333 191.708 57.9583 227.375 66.875C247.725 71.9575 262.269 86.7294 278.368 103.067C304.593 129.688 334.95 160.5 401.25 160.5C472.583 160.5 517.167 124.833 535 53.5C508.25 89.1667 477.042 102.542 441.375 93.625C421.025 88.5425 406.481 73.7706 390.382 57.4332C364.157 30.812 333.8 0 267.5 0ZM133.75 160.5C62.4167 160.5 17.8333 196.167 0 267.5C26.75 231.833 57.9583 218.458 93.625 227.375C113.975 232.467 128.519 247.229 144.618 263.567C170.843 290.188 201.2 321 267.5 321C338.833 321 383.417 285.333 401.25 214C374.5 249.667 343.292 263.042 307.625 254.125C287.275 249.042 272.731 234.271 256.632 217.933C230.407 191.312 200.05 160.5 133.75 160.5Z" fill="#38BDF8"/>
</g>
</g>
<defs>
<clipPath id="clip0_10_5">
<rect width="535" height="321" fill="white"/>
</clipPath>
</defs>
</svg>
